# xmcd CD database file
#
# Track frame offsets:
#	183
#	41145
#	96708
#	142903
#	181528
#	231088
#
# Disc length: 3705 seconds
#
# Revision: 0
# Processed by: cddbd v1.5.2PL0 Copyright (c) Steve Scherf et al.
# Submitted via: CDex 1.51
#
DISCID=4a0e7706
DTITLE=George Benson - Collection
DYEAR=1990
DGENRE=Jazz
TTITLE0=I'm afraid (The masquerade is over)
TTITLE1=All Blues
TTITLE2=Oleo
TTITLE3=All the things you are
TTITLE4=L'il Darlin'
TTITLE5=There will never be another you
EXTD=YEAR: 1990
EXTT0=
EXTT1=
EXTT2=
EXTT3=
EXTT4=
EXTT5=
PLAYORDER=
